<?xml version="1.0" encoding="UTF-8" standalone="no"?>
<!DOCTYPE svg PUBLIC "-//W3C//DTD SVG 1.1//EN" "http://www.w3.org/Graphics/SVG/1.1/DTD/svg11.dtd">
<svg xmlns="http://www.w3.org/2000/svg" version="1.1" viewBox="0.00 0.00 204.00 50.00">
<path fill="#85eda2" d="
  M 178.90 18.76
  L 178.35 11.27
  A 1.30 1.30 0.0 0 0 177.10 10.07
  C 173.62 9.95 166.35 10.62 166.37 5.30
  A 1.44 1.43 -24.1 0 1 166.74 4.34
  Q 168.64 2.27 171.53 1.90
  Q 184.99 0.19 188.27 12.54
  Q 188.40 13.02 188.89 12.99
  Q 191.02 12.84 192.37 14.53
  Q 193.01 15.31 192.00 15.28
  L 189.27 15.18
  Q 188.25 15.14 188.25 16.16
  L 188.25 36.77
  Q 188.25 37.31 187.74 37.12
  Q 185.99 36.46 186.00 34.74
  Q 186.02 25.15 185.99 15.54
  A 0.37 0.37 0.0 0 0 185.62 15.17
  L 181.29 15.17
  A 0.54 0.54 0.0 0 0 180.75 15.71
  L 180.75 37.04
  Q 180.75 37.88 180.16 37.28
  L 178.59 35.71
  Q 178.23 35.36 178.23 34.85
  C 178.26 30.78 179.19 21.83 176.75 18.59
  C 172.04 12.33 164.83 18.77 169.08 23.47
  Q 169.54 23.97 169.69 23.31
  C 170.67 18.98 176.49 21.33 174.23 24.79
  C 168.79 33.10 158.52 15.15 170.12 13.03
  C 174.18 12.29 176.98 15.34 178.30 18.89
  A 0.31 0.31 0.0 0 0 178.90 18.76
  Z
  M 172.85 3.74
  Q 170.82 3.72 168.88 4.48
  Q 168.01 4.83 167.99 5.32
  A 1.48 1.47 4.2 0 0 169.31 6.84
  C 172.31 7.15 177.32 6.50 179.45 9.13
  Q 179.73 9.48 179.79 9.92
  Q 180.00 11.44 180.95 12.61
  Q 181.26 13.00 181.76 13.00
  L 185.73 13.00
  Q 186.31 13.00 186.17 12.44
  C 184.42 5.42 179.39 3.80 172.85 3.74
  Z"
/>
<path fill="#85eda2" d="
  M 34.84 39.30
  C 23.67 29.03 23.22 14.87 34.90 4.72
  A 1.08 1.07 44.8 0 1 36.31 4.72
  C 47.77 14.82 47.69 29.20 36.27 39.31
  A 1.07 1.07 0.0 0 1 34.84 39.30
  Z"
/>
<path fill="#85eda2" d="
  M 22.09 7.43
  A 1.06 1.05 23.6 0 1 23.51 6.88
  L 26.90 8.41
  Q 27.52 8.69 27.20 9.30
  L 25.35 12.74
  A 0.68 0.67 32.0 0 1 24.37 12.96
  Q 22.96 11.94 21.23 11.98
  A 0.69 0.69 0.0 0 1 20.58 11.02
  L 22.09 7.43
  Z"
/>
<path fill="#85eda2" d="
  M 50.07 11.75
  L 46.47 12.93
  Q 45.96 13.09 45.72 12.62
  L 43.94 9.27
  Q 43.62 8.66 44.24 8.39
  L 47.90 6.80
  Q 48.70 6.46 49.02 7.26
  L 50.48 10.86
  Q 50.75 11.53 50.07 11.75
  Z"
/>
<path fill="#85eda2" d="
  M 151.51 16.84
  A 0.81 0.81 0.0 0 0 151.26 15.25
  Q 144.37 15.27 137.08 15.21
  Q 135.72 15.20 135.14 13.48
  A 0.37 0.36 -9.1 0 1 135.49 13.00
  L 157.17 13.00
  A 0.87 0.83 70.9 0 1 157.85 13.35
  L 159.70 15.91
  Q 159.81 16.06 159.98 16.00
  Q 160.11 15.96 160.23 15.92
  Q 160.34 15.89 160.31 15.77
  Q 159.66 12.79 159.75 9.75
  A 0.47 0.47 0.0 0 1 160.26 9.29
  Q 160.81 9.33 160.80 9.74
  Q 160.77 11.51 161.69 12.60
  A 1.11 1.11 0.0 0 0 162.65 13.01
  Q 164.41 12.86 165.56 14.18
  A 0.57 0.57 0.0 0 1 165.13 15.13
  L 162.56 15.13
  A 0.56 0.56 0.0 0 0 162.00 15.69
  L 162.00 37.27
  Q 162.00 37.90 161.42 37.63
  Q 159.79 36.87 159.78 35.43
  Q 159.75 27.92 159.73 20.39
  C 159.72 16.71 158.31 14.46 154.35 15.22
  Q 153.87 15.31 153.87 15.79
  L 154.02 37.26
  A 0.44 0.44 0.0 0 1 153.18 37.44
  C 151.05 32.53 147.51 28.19 141.78 27.65
  Q 141.30 27.61 141.02 27.23
  L 138.77 24.17
  Q 138.38 23.64 138.91 23.26
  Q 144.68 18.99 151.51 16.84
  Z
  M 143.18 24.79
  Q 147.77 27.05 151.04 31.00
  Q 151.75 31.86 151.75 30.74
  L 151.75 20.70
  Q 151.75 19.79 150.95 20.21
  L 143.17 24.20
  A 0.33 0.33 0.0 0 0 143.18 24.79
  Z"
/>
<path fill="#85eda2" d="
  M 112.23 19.21
  C 114.53 17.21 119.00 14.14 121.16 18.09
  Q 122.96 21.37 120.21 24.45
  Q 119.87 24.83 120.09 25.29
  C 121.57 28.40 123.16 31.01 119.51 33.27
  C 117.09 34.78 114.11 31.88 112.32 29.79
  Q 111.75 29.13 111.75 30.00
  L 111.75 35.00
  Q 111.75 41.74 109.56 35.45
  Q 108.38 32.04 104.65 29.81
  C 101.53 27.93 98.71 29.39 96.74 24.96
  Q 96.52 24.45 96.94 24.09
  L 102.17 19.56
  A 0.99 0.98 -73.6 0 0 101.25 17.87
  Q 97.11 19.10 95.01 15.65
  Q 94.72 15.18 94.17 15.19
  L 85.53 15.28
  A 0.74 0.74 0.0 0 0 85.40 16.74
  Q 92.57 18.09 93.53 25.24
  C 94.11 29.56 88.18 32.20 87.10 27.74
  A 2.43 2.42 75.1 0 1 88.77 24.84
  Q 90.14 24.43 91.16 25.35
  A 0.55 0.55 0.0 0 0 92.04 24.76
  Q 90.57 20.66 86.41 19.80
  A 1.01 1.00 5.9 0 0 85.20 20.78
  L 85.24 37.02
  Q 85.24 37.55 84.81 37.86
  L 81.03 40.57
  A 0.64 0.64 0.0 0 0 81.07 41.63
  Q 84.21 43.54 87.08 46.17
  Q 87.55 46.60 87.47 47.27
  Q 87.42 47.71 87.05 47.48
  L 76.83 41.08
  Q 76.37 40.80 76.81 40.48
  C 81.24 37.23 87.00 34.85 79.43 29.44
  C 76.20 27.14 73.33 28.29 70.99 23.88
  Q 70.75 23.43 71.15 23.11
  Q 76.30 19.09 82.50 17.02
  A 0.97 0.97 0.0 0 0 82.15 15.14
  Q 75.95 15.42 69.70 15.14
  Q 68.39 15.08 67.88 13.45
  A 0.34 0.34 0.0 0 1 68.21 13.01
  Q 91.12 12.99 114.00 13.00
  Q 115.53 13.00 116.11 14.77
  A 0.37 0.36 -9.1 0 1 115.76 15.25
  L 112.50 15.25
  Q 111.75 15.25 111.75 16.00
  L 111.75 18.99
  Q 111.75 19.63 112.23 19.21
  Z
  M 109.50 15.60
  A 0.32 0.32 0.0 0 0 109.19 15.28
  L 102.10 15.16
  A 0.32 0.32 0.0 0 0 101.87 15.72
  L 108.96 22.30
  A 0.32 0.32 0.0 0 0 109.50 22.07
  L 109.50 15.60
  Z
  M 116.09 26.69
  A 1.85 1.84 37.7 0 1 115.70 23.67
  Q 117.26 22.28 119.10 23.58
  A 0.56 0.56 0.0 0 0 119.99 23.13
  L 119.99 20.44
  Q 119.99 19.84 119.41 19.68
  C 112.47 17.82 108.42 27.43 115.76 30.12
  C 118.52 31.13 120.45 29.19 119.94 26.42
  A 0.44 0.44 0.0 0 0 119.17 26.22
  Q 117.96 27.65 116.09 26.69
  Z
  M 75.50 24.63
  Q 79.94 26.26 82.23 30.40
  A 0.41 0.41 0.0 0 0 83.00 30.20
  L 83.00 20.42
  Q 83.00 19.35 82.09 19.91
  L 75.43 23.96
  A 0.37 0.37 0.0 0 0 75.50 24.63
  Z
  M 109.24 31.08
  Q 111.10 24.75 105.83 21.75
  Q 105.23 21.41 104.74 21.89
  L 101.53 25.08
  Q 101.00 25.61 101.69 25.87
  Q 105.95 27.49 108.56 31.19
  Q 109.01 31.83 109.24 31.08
  Z"
/>
<path fill="#85eda2" d="
  M 12.34 14.00
  C 16.12 13.85 20.27 14.34 23.74 15.66
  Q 24.27 15.86 24.11 16.41
  C 21.73 24.34 24.82 32.50 29.92 38.35
  Q 31.01 39.59 29.40 39.25
  Q 12.91 35.81 11.57 19.23
  C 11.46 17.82 10.85 16.20 11.57 14.52
  Q 11.79 14.02 12.34 14.00
  Z"
/>
<path fill="#85eda2" d="
  M 58.84 14.06
  A 1.31 1.31 0.0 0 1 60.06 15.43
  C 59.42 28.04 54.55 37.38 41.14 39.19
  A 0.25 0.25 0.0 0 1 40.92 38.77
  C 46.05 32.93 49.67 24.25 47.08 16.44
  Q 46.89 15.87 47.45 15.66
  Q 52.95 13.63 58.84 14.06
  Z"
/>
<path fill="#85eda2" d="
  M 11.51 37.33
  L 14.04 35.09
  Q 14.47 34.71 14.90 35.11
  Q 21.89 41.62 31.53 42.23
  A 0.43 0.43 0.0 0 1 31.72 43.02
  C 24.45 47.45 16.75 44.68 11.43 38.77
  A 1.01 1.01 0.0 0 1 11.51 37.33
  Z"
/>
<path fill="#85eda2" d="
  M 39.31 42.97
  A 0.40 0.40 0.0 0 1 39.49 42.22
  Q 49.24 41.66 56.31 35.09
  Q 56.80 34.64 57.28 35.10
  L 59.93 37.64
  A 0.61 0.61 0.0 0 1 59.98 38.46
  C 54.73 44.88 46.72 47.26 39.31 42.97
  Z"
/>
</svg>
